<?xml version="1.0" encoding="utf-8"?>
<!-- Generator: Adobe Illustrator 23.0.4, SVG Export Plug-In . SVG Version: 6.00 Build 0)  -->
<svg version="1.1" id="Livello_1" xmlns="http://www.w3.org/2000/svg" xmlns:xlink="http://www.w3.org/1999/xlink" x="0px" y="0px"
	 viewBox="0 0 141.7 141.7" style="enable-background:new 0 0 141.7 141.7;" xml:space="preserve">
<style type="text/css">
	.st0{fill:#F60B50;}
</style>
<g id="Livello_111">
	<path class="st0" d="M-0.5,139.5l34.9-28.7V52L-0.5,80.7V139.5z M70.2,80.1L36,52v58.7l34.2,28.1V80.1z M81.4,24.2
		c0,6.1-4.9,11-11,11c-6.1,0-11-4.9-11-11s4.9-11,11-11C76.5,13.3,81.4,18.2,81.4,24.2 M89.9,35.2c1.9-3.2,2.9-7,2.9-11
		c0-12.1-9.8-21.9-21.9-21.9c-12.1,0-21.9,9.8-21.9,21.9c0,5.3,1.9,10.2,5.1,14l16.9,24.4L88,37.9c0.6-0.8,1.2-1.6,1.7-2.4
		L89.9,35.2L89.9,35.2z M71.8,138.7l33.6-27.7V52.2L71.8,79.9V138.7z M142.2,139.5V80.7l-35.3-29.1v58.7L142.2,139.5z"/>
</g>
<g id="Livello_1_1_">
</g>
</svg>
