<?xml version="1.0" encoding="utf-8"?>
<!-- Generator: Adobe Illustrator 23.1.1, SVG Export Plug-In . SVG Version: 6.00 Build 0)  -->
<svg version="1.1" id="Слой_1" xmlns:sketch="http://www.bohemiancoding.com/sketch/ns"
	 xmlns="http://www.w3.org/2000/svg" xmlns:xlink="http://www.w3.org/1999/xlink" x="0px" y="0px" viewBox="0 0 32 32"
	 style="enable-background:new 0 0 32 32;" xml:space="preserve">
<style type="text/css">
	.st0{fill-rule:evenodd;clip-rule:evenodd;fill:#F60B50;}
</style>
<title></title>
<desc></desc>
<g id="Page-1">
	<g id="icon-45-note-list">
		<path id="note-list" class="st0" d="M21.5,28H7c-1.1,0-2-0.9-2-2V7c0-1.1,0.9-2,2-2h19c1.1,0,2,0.9,2,2v13.5V21l-6,7H21.5L21.5,28
			L21.5,28z M6,11v15c0,0.6,0.5,1,1,1h14v-5c0-1.1,0.9-2,2-2h4v-9H6L6,11L6,11z M6,10V7c0-0.6,0.4-1,1-1h19c0.6,0,1,0.4,1,1v3H6
			L6,10z M22,26.5V22c0-0.6,0.5-1,1-1h3.7L22,26.5L22,26.5z M13,18v1h7v-1H13L13,18z M8,17v3h3v-3H8L8,17z M9,18v1h1v-1H9L9,18z
			 M13,14v1h12v-1H13L13,14z M8,13v3h3v-3H8L8,13z M9,14v1h1v-1H9L9,14z M13,22v1h6v-1H13L13,22z M8,21v3h3v-3H8L8,21z M9,22v1h1v-1
			H9L9,22z"/>
	</g>
</g>
</svg>
