<?xml version="1.0" encoding="utf-8"?>
<!-- Generator: Adobe Illustrator 23.0.4, SVG Export Plug-In . SVG Version: 6.00 Build 0)  -->
<svg version="1.1" id="Layer_1" xmlns="http://www.w3.org/2000/svg" xmlns:xlink="http://www.w3.org/1999/xlink" x="0px" y="0px"
	 viewBox="0 0 24 24" style="enable-background:new 0 0 24 24;" xml:space="preserve">
<style type="text/css">
	.st0{fill:#F60B50;}
</style>
<g>
	<path class="st0" d="M15,13.4l3.7,3.7l0.4-0.4c0.6-0.6,0.6-1.6,0-2.1l-1.6-1.6c-0.3-0.3-0.7-0.4-1.1-0.4s-0.8,0.2-1.1,0.4L15,13.4z
		"/>
	<path class="st0" d="M9.1,6.7c0.6-0.6,0.6-1.6,0-2.1L7.5,2.9C7.2,2.7,6.9,2.5,6.5,2.5S5.7,2.7,5.4,2.9L5,3.4l3.7,3.7L9.1,6.7z"/>
	<path class="st0" d="M17.3,18.4l0.4-0.4L14,14.4L13.3,15c-0.1,0.1-0.2,0.1-0.4,0.1s-0.3-0.1-0.4-0.1L7,9.4C6.8,9.3,6.8,8.9,7,8.7
		l0.6-0.6L4,4.4L3.6,4.7C3.4,5,2.5,6,2.5,7.8c0,1.6,0.7,4.3,4.1,7.7C13.4,22.2,17.2,18.6,17.3,18.4z"/>
</g>
</svg>
