<?xml version="1.0" encoding="utf-8"?>
<!-- Generator: Adobe Illustrator 23.1.1, SVG Export Plug-In . SVG Version: 6.00 Build 0)  -->
<svg version="1.1" id="Livello_1" xmlns="http://www.w3.org/2000/svg" xmlns:xlink="http://www.w3.org/1999/xlink" x="0px" y="0px"
	 viewBox="0 0 141.7 141.7" style="enable-background:new 0 0 141.7 141.7;" xml:space="preserve">
<style type="text/css">
	.st0{fill:#F60B50;}
</style>
<g id="Livello_106">
	<path class="st0" d="M91.6,70.9l39.8,34.1l-3.6,3.6L87.6,74.2L70.9,88.6L54.3,74.4l-39.9,34.2l-3.8-3.8l39.6-34L10.4,36.7l3.6-3.6
		l56.7,48.6l12.8-11l0,0h0.1l43.8-37.6l3.8,3.8L91.6,70.9z M141,108.6V33.1c0-3-2.4-5.4-5.4-5.4c0,0,0,0-0.1,0c0,0,0,0-0.1,0
		c-0.3,0-0.7,0-1,0.1v-0.1H11.9v0H6.3c-0.1,0-0.1,0-0.2,0c0,0,0,0-0.1,0c0,0,0,0-0.1,0c-2.9,0-5.3,2.4-5.3,5.3c0,0,0,0,0,0.1
		s0,0,0,0.1v75.5c0,3,2.4,5.4,5.4,5.4h129.5C138.6,114,141,111.6,141,108.6"/>
</g>
<g id="Livello_1_1_">
</g>
</svg>
