<?xml version="1.0" encoding="utf-8"?>
<!-- Generator: Adobe Illustrator 23.0.4, SVG Export Plug-In . SVG Version: 6.00 Build 0)  -->
<svg version="1.1" id="Layer_1" xmlns="http://www.w3.org/2000/svg" xmlns:xlink="http://www.w3.org/1999/xlink" x="0px" y="0px"
	 viewBox="0 0 500 500" style="enable-background:new 0 0 500 500;" xml:space="preserve">
<style type="text/css">
	.st0{fill-rule:evenodd;clip-rule:evenodd;fill:#393939;}
</style>
<path class="st0" d="M177.3,367.1v27.3c0,12.7,5.3,24.3,13.7,32.5l26.7,26.7c17.8,17.8,46.7,17.8,64.5,0L309,427
	c8.4-8.3,13.7-19.8,13.7-32.5v-18.3h-80.9c-10.5,0-19.1-8.2-19.1-18.2c0-10,8.5-18.2,19.1-18.2H325c12.4-70,70.3-99.1,70.3-167.4
	c0-78.1-65.1-141.5-145.4-141.5c-80.3,0-145.4,63.3-145.4,141.5C104.6,249.6,177.3,276.8,177.3,367.1z M274.1,112.7
	c-8.5-1.5-15-9-15-17.9c0-10,8.2-18.4,18.2-18.4c14.4,0,32,10.3,46.7,24.8c15,14.9,26,34.8,26,47.9c0,10-8.2,18.2-18.2,18.2
	c-8.9,0-16.4-6.5-17.9-15C309.3,134,293.7,117.3,274.1,112.7z"/>
</svg>
