<?xml version="1.0" encoding="utf-8"?>
<!-- Generator: Adobe Illustrator 23.0.4, SVG Export Plug-In . SVG Version: 6.00 Build 0)  -->
<svg version="1.1" id="Layer_1" xmlns="http://www.w3.org/2000/svg" xmlns:xlink="http://www.w3.org/1999/xlink" x="0px" y="0px"
	 viewBox="0 0 500 500" style="enable-background:new 0 0 500 500;" xml:space="preserve">
<style type="text/css">
	.st0{fill-rule:evenodd;clip-rule:evenodd;fill:#393939;}
</style>
<path class="st0" d="M31.9,431.7c0,20.1,16.3,36.3,36.3,36.3h363.4c20.1,0,36.3-16.3,36.3-36.3V204.6c0-20.1-16.3-36.3-36.3-36.3
	h-36.3v-40.9c0-52.7-42.7-95.4-95.4-95.4c-21.5,0-41.3,7.1-57.2,19.1c-12.9-6.4-27.3-10-42.7-10c-52.7,0-95.4,42.7-95.4,95.4
	l0.1,31.8H68.3c-20.1,0-36.3,16.3-36.3,36.3L31.9,431.7L31.9,431.7z M349.9,168.2h-99.9l-0.1-40.9c0-27.6,22.3-50,50-50
	c27.6,0,50,22.4,50,50L349.9,168.2L349.9,168.2z M204.7,168.2h-54.5l-0.1-31.8c0-27.6,22.3-50,50-50c4.5,0,8.8,0.6,12.9,1.7
	c-5.4,11.9-8.4,25.2-8.4,39.2L204.7,168.2z M204.6,227.3c0-12.5,10.2-22.7,22.7-22.7c12.5,0,22.7,10.2,22.7,22.7
	c0,12.5-10.2,22.7-22.7,22.7C214.7,250,204.6,239.8,204.6,227.3z M349.9,227.3c0-12.5,10.2-22.7,22.7-22.7
	c12.5,0,22.7,10.2,22.7,22.7c0,12.5-10.2,22.7-22.7,22.7C360.1,250,349.9,239.8,349.9,227.3z M113.7,231.8v172.6
	c0,10-8.2,18.2-18.2,18.2c-10,0-18.2-8.2-18.2-18.2V231.8c0-10,8.2-18.2,18.2-18.2C105.5,213.7,113.7,221.8,113.7,231.8z"/>
</svg>
