<?xml version="1.0" encoding="utf-8"?>
<!-- Generator: Adobe Illustrator 23.0.4, SVG Export Plug-In . SVG Version: 6.00 Build 0)  -->
<svg version="1.1" id="Layer_1" xmlns="http://www.w3.org/2000/svg" xmlns:xlink="http://www.w3.org/1999/xlink" x="0px" y="0px"
	 viewBox="0 0 500 500" style="enable-background:new 0 0 500 500;" xml:space="preserve">
<style type="text/css">
	.st0{fill-rule:evenodd;clip-rule:evenodd;fill:#393939;}
</style>
<path class="st0" d="M261,199.5c19.6,4.5,35.2,21.3,39.8,39.5c1.6,8.5,9,15,17.9,15c10,0,18.2-8.2,18.2-18.2c0-13.1-11-33-26-47.9
	c-14.7-14.5-32.3-24.8-46.7-24.8c-10,0-18.2,8.5-18.2,18.4C246,190.5,252.4,198,261,199.5z M91.5,249.5c0,9.2,0.7,18.3,2.3,27
	l-31.7,10.4c-12,3.9-18.5,16.7-14.6,28.6c3.9,12,16.7,18.4,28.6,14.6l31.7-10.4c8.1,16.4,18.9,31.2,31.8,43.7l-19.6,27.1
	c-7.4,10.2-5.1,24.4,5.1,31.7c10.1,7.4,24.4,5.2,31.7-5l19.6-27.1c15.7,8.4,33.1,14.2,51.4,16.7v33.4c0,12.5,10.2,22.7,22.7,22.7
	c12.5,0,22.7-10.2,22.7-22.7v-33.4c18.3-2.5,35.7-8.4,51.4-16.7l19.6,27.1c7.4,10.2,21.6,12.4,31.7,5c10.2-7.4,12.4-21.5,5.1-31.7
	l-19.7-27.1c13-12.5,23.8-27.3,31.8-43.7l31.8,10.4c11.9,3.8,24.7-2.6,28.6-14.6c3.9-11.9-2.6-24.7-14.6-28.6l-31.7-10.4
	c1.5-8.7,2.3-17.8,2.3-27c0-9.2-0.7-18.3-2.3-27l31.7-10.4c12-3.9,18.5-16.7,14.6-28.6c-3.9-12-16.7-18.4-28.6-14.6l-31.8,10.4
	c-8-16.3-18.8-31.2-31.8-43.8l19.7-27c7.4-10.2,5.1-24.4-5.1-31.7c-10.1-7.4-24.4-5.2-31.7,5l-19.6,27
	c-15.8-8.3-33.1-14.1-51.4-16.6V58.7c0-12.5-10.2-22.7-22.7-22.7c-12.5,0-22.7,10.2-22.7,22.7v33.4c-18.4,2.5-35.7,8.3-51.4,16.6
	l-19.6-27c-7.4-10.2-21.6-12.4-31.7-5c-10.2,7.4-12.4,21.5-5.1,31.7l19.6,27c-12.9,12.6-23.7,27.4-31.8,43.8l-31.7-10.4
	c-11.9-3.8-24.7,2.6-28.6,14.6c-3.9,11.9,2.6,24.7,14.6,28.6l31.7,10.4C92.2,231.2,91.5,240.3,91.5,249.5z M136.9,249.5
	c0-62.7,50.9-113.6,113.6-113.6c62.7,0,113.6,50.9,113.6,113.6c0,62.7-50.9,113.6-113.6,113.6C187.8,363.1,136.9,312.2,136.9,249.5z
	"/>
</svg>
