<?xml version="1.0" encoding="utf-8"?>
<!-- Generator: Adobe Illustrator 23.0.4, SVG Export Plug-In . SVG Version: 6.00 Build 0)  -->
<svg version="1.1" id="Layer_1" xmlns="http://www.w3.org/2000/svg" xmlns:xlink="http://www.w3.org/1999/xlink" x="0px" y="0px"
	 viewBox="0 0 500 500" style="enable-background:new 0 0 500 500;" xml:space="preserve">
<style type="text/css">
	.st0{fill-rule:evenodd;clip-rule:evenodd;fill:#393939;}
</style>
<path class="st0" d="M243.7,119.9c-26.9,26.9-20.6,61.9-29.6,95.9L63.3,63.6c-3.3-3.5-8-5.6-13.2-5.6c-10,0-18.2,8.1-18.2,18.2v6.2
	c0,54.8,23.6,156.2,97.4,237.4l-86.9,86.8c-14.1,14.1-14.1,37,0,51.1c14.1,14.1,37,14.1,51,0l86.6-86.7l51.8,51.8l44.7-40.6
	l75.5,75.5c14,14.1,36.9,14.1,51,0c14.1-14.1,14.1-37,0-51.1L283.5,286c34.4-9.4,69.7-2.8,96.6-29.7l81.2-81.2c9-8.9,9-23.4,0-32.4
	c-9-9-23.5-9-32.4,0L357.4,214c-5.4,5.4-14.1,5.4-19.4,0c-5.4-5.4-5.4-14.1,0-19.4l71.4-71.5c9-8.9,9-23.4,0-32.4
	c-9-9-23.5-9-32.4,0l-71.5,71.4c-5.4,5.4-14.1,5.4-19.4,0c-5.4-5.4-5.4-14.1,0-19.4l71.4-71.5c9-8.9,9-23.4,0-32.4
	c-9-9-23.5-9-32.4,0L243.7,119.9z"/>
</svg>
