<?xml version="1.0" encoding="utf-8"?>
<!-- Generator: Adobe Illustrator 23.0.4, SVG Export Plug-In . SVG Version: 6.00 Build 0)  -->
<svg version="1.1" id="Layer_1" xmlns="http://www.w3.org/2000/svg" xmlns:xlink="http://www.w3.org/1999/xlink" x="0px" y="0px"
	 viewBox="0 0 500 500" style="enable-background:new 0 0 500 500;" xml:space="preserve">
<style type="text/css">
	.st0{fill-rule:evenodd;clip-rule:evenodd;fill:#393939;}
</style>
<path class="st0" d="M277.3,276.8c0-12.5,10.2-22.7,22.7-22.7s22.7,10.2,22.7,22.7c0,12.5-10.2,22.7-22.7,22.7
	S277.3,289.3,277.3,276.8z M300,217.7c-32.6,0-59.1,26.4-59.1,59.1s26.4,59.1,59.1,59.1s59.1-26.4,59.1-59.1S332.6,217.7,300,217.7z
	 M31.9,381.2c0,20.1,16.3,36.3,36.3,36.3h363.4c20.1,0,36.3-16.3,36.3-36.3v-209c0-20.1-16.3-36.3-36.3-36.3h-34.1l-46.5-46.5
	c-5.4-5.4-12.4-8-19.3-8h-63.5c-7,0-14.1,2.6-19.4,8l-46.3,46.5h-34.3v-20.4c0-8.8-7.1-15.9-15.9-15.9H93.3
	c-8.8,0-15.9,7.1-15.9,15.9v20.4h-9.1c-20.1,0-36.3,16.3-36.3,36.3L31.9,381.2L31.9,381.2z M150.1,217.7H95.5
	c-10,0-18.2-8.2-18.2-18.2c0-10,8.2-18.2,18.2-18.2h54.5c10,0,18.2,8.2,18.2,18.2C168.2,209.5,160.1,217.7,150.1,217.7z M300,181.4
	c52.7,0,95.4,42.7,95.4,95.4c0,52.7-42.7,95.4-95.4,95.4c-52.7,0-95.4-42.7-95.4-95.4C204.6,224.1,247.3,181.4,300,181.4z"/>
</svg>
